<svg xmlns="http://www.w3.org/2000/svg" xmlns:xlink="http://www.w3.org/1999/xlink" viewBox="0 0 684.26 897.79"><defs><style>.cls-1{fill:url(#linear-gradient);}.cls-2{fill:url(#linear-gradient-2);}.cls-3{isolation:isolate;}.cls-4{fill:#fff;}.cls-5{fill:#428cfe;}.cls-6{fill:#75abfe;}.cls-7{fill:#5296fe;}.cls-8{fill:#8ab8fe;}.cls-9{fill:#e7ecfb;}.cls-10{fill:#a3c1f6;}.cls-11{fill:#7eabf9;}.cls-12{fill:#c9d8fb;}.cls-13{fill:#fefefe;}.cls-14{fill:#95b9f7;}.cls-15{fill:#e7f0fd;}.cls-16{fill:#e1ecfd;}.cls-17{fill:#438dfe;}.cls-18{fill:#e34d44;}.cls-19{fill:#f6685f;}.cls-20{fill:#ed5a51;}.cls-21{fill:#ed5b52;}</style><linearGradient id="linear-gradient" x1="139.92" y1="-1833.51" x2="277.88" y2="-1833.51" gradientTransform="translate(129.08 2524.8)" gradientUnits="userSpaceOnUse"><stop offset="0" stop-color="#cce0f4"/><stop offset="0.06" stop-color="#c3dcf2"/><stop offset="0.17" stop-color="#a9d2ee"/><stop offset="0.31" stop-color="#80c2e7"/><stop offset="0.46" stop-color="#47acde"/><stop offset="0.57" stop-color="#1e9cd7"/><stop offset="0.87" stop-color="#0075be"/><stop offset="0.99" stop-color="#005b97"/></linearGradient><linearGradient id="linear-gradient-2" x1="122.22" y1="-2062.51" x2="294.21" y2="-2062.51" gradientTransform="translate(129.08 2524.8)" gradientUnits="userSpaceOnUse"><stop offset="0" stop-color="#fff"/><stop offset="1"/></linearGradient></defs><g id="Layer_2" data-name="Layer 2"><g id="Layer_1-2" data-name="Layer 1"><path class="cls-1" d="M310.82,894.79c-23.08,0-41.82-19.25-41.82-43h0v-364H406a1,1,0,0,1,1,1v363c0,23.75-18.71,43-41.79,43H310.82Z"/><path d="M404.08,490.79v361c0,22.09-17.41,40-38.89,40H310.75c-21.47,0-38.88-17.91-38.88-40v-361H404.08m1.81-6H266.12v367c0,25.41,20,46,44.67,46h54.37c24.67,0,44.67-20.59,44.67-46v-363a3.92,3.92,0,0,0-3.83-4h-.11Z"/><path class="cls-2" d="M261.5,472.79a10.32,10.32,0,0,1-10.2-10.45,10.43,10.43,0,0,1,10.51-10.55h151a10.53,10.53,0,0,1,2,20.87,8.75,8.75,0,0,1-1.69.13Z"/><path d="M413.1,454.79a7.4,7.4,0,0,1,7.28,7.5,7.3,7.3,0,0,1-.05.94,7.54,7.54,0,0,1-7.51,6.56h-151a7.51,7.51,0,0,1-1.2-14.94,7.22,7.22,0,0,1,.92-.06H413.66m-.53-6H261.81a13.56,13.56,0,0,0-13.41,12c-.75,7.46,4.43,14.15,11.58,14.93a11.8,11.8,0,0,0,1.46.07H412.75a13.54,13.54,0,0,0,13.41-12c.76-7.45-4.43-14.14-11.57-14.92a12.51,12.51,0,0,0-1.49-.08Z"/><g class="cls-3"><g class="cls-3"><path class="cls-4" d="M368.84,807.69h-58v32.1h-7.76V762.55h7.76v32.24h58Z"/><path class="cls-4" d="M368.84,749.06H303.08V678.59h7.76v57.57H331V682.25h7.71v53.91h22.39V676.33h7.76Z"/><path class="cls-4" d="M347.71,662.9,347,650.74a14.79,14.79,0,0,0,8.1-4q3.17-3.16,5.11-9.81a53.12,53.12,0,0,0,1.95-15,51.43,51.43,0,0,0-1.48-13q-1.47-5.65-4.06-8.41a7.62,7.62,0,0,0-5.63-2.76,7,7,0,0,0-5.4,2.66q-2.31,2.66-3.88,8.77-1,3.93-3.21,17.35t-4.1,18.81q-2.47,7-6.13,10.41a11.67,11.67,0,0,1-8.18,3.42q-5,0-9.31-4.19t-6.57-12.23A66.29,66.29,0,0,1,302,624.88a70,70,0,0,1,2.35-19.11q2.35-8.28,6.93-12.73a15.85,15.85,0,0,1,10.36-4.79l.63,12.37a12.62,12.62,0,0,0-9.42,6.74q-3.18,5.76-3.18,17,0,11.7,2.89,17t7,5.35q3.54,0,5.83-3.79T330,623.52q2.4-15.72,4.2-21.58,2.64-8.51,6.7-12.56a12.89,12.89,0,0,1,9.36-4q5.24,0,9.89,4.45t7.22,12.8A63.45,63.45,0,0,1,370,621.36q0,13.23-2.6,22.16t-7.83,14A17.59,17.59,0,0,1,347.71,662.9Z"/></g><g class="cls-3"><path class="cls-4" d="M368.84,542.93h-58V575h-7.76V497.79h7.76V530h58Z"/></g></g><path d="M138.46,124.12a1.5,1.5,0,1,0-1.45-1.5,1.47,1.47,0,0,0,1.45,1.5Z"/><path class="cls-5" d="M440.49,360.32v55.37a8.53,8.53,0,0,1-4.41,6.87,10.87,10.87,0,0,1-8.64,1.07,9.43,9.43,0,0,1-2.81-1.29,2.83,2.83,0,0,0-3.56.12,56.12,56.12,0,0,1-10.9,5.66,30,30,0,0,1-9.16,1.49c-8.43.37-16.87.16-25.31.18H336.91c-5.86,0-10.1-2.39-12.48-7.55a12.32,12.32,0,0,1-.31-10.25,2,2,0,0,0-.9-3,13.42,13.42,0,0,1-6.63-9.93,12.45,12.45,0,0,1,1.32-7.3c1.14-2.34,1-2.23-.71-4.25-1.53-1.79-3.31-2.21-5.59-2.33a78.2,78.2,0,0,1-50.09-22.8,72.45,72.45,0,0,1-19.82-36.29c-1.12-5.27-1-10.72-1-16.1,0-2.33,1.11-3.22,3.37-3.25,2.42,0,4.11,1.27,4.21,3.5A89.28,89.28,0,0,0,249.55,322a65.74,65.74,0,0,0,16.75,33.21c6.72,7.28,15,12.31,23.67,16.82,1.11.57,2.37.69,3.48,1.21a5,5,0,0,0,1.92.57,85.16,85.16,0,0,0,16,3.11c1.12.12,1.73-.22,1.92-1.27a11.92,11.92,0,0,1,.39-1.45c.41-1.19,0-1.7-1.3-1.83-2.65-.26-5.28-.59-7.89-1.1A65.65,65.65,0,0,1,274.91,357c-8-6.63-13.07-15.11-17.28-24.22a20.67,20.67,0,0,1-1.36-2.7,61.91,61.91,0,0,1-2.88-25,69.62,69.62,0,0,1,2.78-13.8c3.18-6.94,6.49-13.81,11.45-19.76a62.73,62.73,0,0,1,19.78-15.71,66,66,0,0,1,71.23,7.39c8.64,6.92,14.33,15.72,18.54,25.59.61,1.12,1,2.36,1.57,3.47A104.55,104.55,0,0,1,381,303.53a65.49,65.49,0,0,1-.21,16c-.32,2.39,1.14,4,2.64,5.61.55.57,1.05.25,1.32-.42a10.39,10.39,0,0,0,.42-2.21q5.25-31-15.45-55.17c-6.83-8-15.5-13.45-24.9-18a15.88,15.88,0,0,0-6.47-1.87,60.89,60.89,0,0,0-14.16-3c-8.35-1-16.49.25-24.6,1.94a18.73,18.73,0,0,0-3.63,1.31c-.87.25-1.85,0-2.66.51A69.1,69.1,0,0,0,275.4,258a65.42,65.42,0,0,0-21.63,27.32,17.42,17.42,0,0,1-1.13,2.19,4.09,4.09,0,0,1-5.19,1.74,3.9,3.9,0,0,1-2.42-4.86l0,0v-.11a59.7,59.7,0,0,1,5.67-11.4,76.16,76.16,0,0,1,15.87-18.45,78.48,78.48,0,0,1,23.25-13.55,59.43,59.43,0,0,1,20.1-3.86c.38,0,.78.1,1.11-.18H313a.92.92,0,0,0,1.17,0h4.29c.64.38,1.33.1,1.92.18.75-.09,1.55.21,2.28-.18h1.57a42.4,42.4,0,0,0,5.95.51c8.64.56,16.32,3.73,23.86,7.51a73.14,73.14,0,0,1,19.37,14.35A72.87,72.87,0,0,1,392.27,329a4.19,4.19,0,0,0,1.6,4.9,88.89,88.89,0,0,1,13.83,13.93,24.41,24.41,0,0,0,11.18,8,3.09,3.09,0,0,0,3.84-.81c3.72-4.32,11.58-4.66,16,.32C440.05,356.81,439.94,358.62,440.49,360.32Z"/><path class="cls-6" d="M323.52,236.79c-.69.62-1.52.28-2.3.35-.29-.09-.3-.21,0-.35Z"/><path class="cls-7" d="M320.73,236.79v.35a2.73,2.73,0,0,1-1.91-.35Z"/><path class="cls-8" d="M315,236.79c-.39.36-.77.47-1.17,0Z"/><path class="cls-9" d="M374.08,304.75c-4.05-3.57-8.37-4.66-13.22-3.39a12.82,12.82,0,0,0-9.47,11.19c-1.07,10.86,1.92,20.69,7.77,29.85.64,1,1.24,2,1.91,3a3.8,3.8,0,0,1-2.21.27c-8,0-15.91,0-23.87.05s-13.82,6.11-13.42,13.73a10.11,10.11,0,0,0,1.05,4c.54,1.05.34,1.38-.89,1.44a58.43,58.43,0,0,1-23-3.27c-22.36-8.13-36.94-28.48-36.83-51.65.09-26.63,20.91-49.78,48.09-53.45,31-4.19,58.91,15.75,63.92,45.71C374,302.92,374,303.62,374.08,304.75Z"/><path class="cls-9" d="M404.63,421.7a29.31,29.31,0,0,1-8.89,1c-18.76.09-37.47.08-56.26.1a3.37,3.37,0,0,1-2-.36c.45-.94,1.36-.73,2.25-.82-1.79-3-1.13-6.3-1.09-9.51,0-1,.69-1.53,1.55-1.92a15.82,15.82,0,0,0,2.28-.1c2-.19,3.25-1.44,3.23-3.23s-1.3-3-3.34-3.07H333.9a4.9,4.9,0,0,1-2.62-.31c1.56-.85,1.43-2,.86-3.46a8.51,8.51,0,0,1,0-5.46,4.5,4.5,0,0,1,2.64-3.4c2.61,0,5.24,0,7.85-.17a3,3,0,0,0,3-3v-.19c0-1.72-1.26-2.88-3.22-3h-2.93c-3.73,0-7.46.07-11.19,0-4-.11-6.77-2.66-6.89-6.15-.17-3.88,2.67-6.75,7-6.85,3.72-.08,7.46,0,11.19,0h2.57c2.06-.12,3.34-1.3,3.36-3.09a3.14,3.14,0,0,0-3.27-3.21c-2-.11-4,0-6,0a7,7,0,0,1-4-1.09,6.25,6.25,0,0,1-2.88-6.93,6.54,6.54,0,0,1,6.63-4.68H362c5.12-.17,8.08-5.07,5.66-9.45-1.28-2.3-2.76-4.47-4-6.76a37.3,37.3,0,0,1-4.81-22.45,6,6,0,0,1,4.27-5.64,2,2,0,0,1,1.91,1.28,11.19,11.19,0,0,1,1.36,4.22c.7,4.86,2.17,9.43,5.44,13.3,2,2.38,4.79,3.88,7.14,5.88,6.15,5.22,12.52,10.22,17.25,16.79a26,26,0,0,0,9.37,7.52,49.26,49.26,0,0,0,6.87,3.21l2.29,1.13c1.06,1.05.89,2.4.89,3.7v44.16a16.68,16.68,0,0,0,0,3.16c.45,2.38-.56,3.76-2.71,4.87A75.3,75.3,0,0,1,404.63,421.7Z"/><path class="cls-10" d="M258.28,291.17a35.44,35.44,0,0,1,3.34-9.36c6.9-14.94,17.94-26.14,32.77-33.94.4-.78,1.26-.76,1.91-1.06,3.37-1.93,7.23-2.18,10.93-2.81a67.22,67.22,0,0,1,29.45,1.49c1,.26,1.83.61,2.74.92a58.53,58.53,0,0,1,19.39,12,74.1,74.1,0,0,1,16.05,21.21,60.33,60.33,0,0,1,2.76,6.39,3,3,0,0,1,.27,2.53.65.65,0,0,1-.74.33,61.17,61.17,0,0,0-15.33-22.39,62.15,62.15,0,0,0-37.68-16.7C295,247.27,269,263.3,258.86,290A10.46,10.46,0,0,1,258.28,291.17Z"/><path class="cls-11" d="M377.48,288.55A67.41,67.41,0,0,0,362.15,263a71.19,71.19,0,0,0-22-16,6.9,6.9,0,0,1-.79-.54,51.09,51.09,0,0,1,14,5.93,66.4,66.4,0,0,1,30.53,36.13A65.19,65.19,0,0,1,386,325.35c-.13.6-.09,1.41-.75,1.63s-1.09-.54-1.53-1c-2.52-2.38-3.83-5-3.23-8.68,1.33-8.15.32-16.22-2-24.13-.08-.3-.16-.61-.23-.92C378.47,291,377.48,289.87,377.48,288.55Z"/><path class="cls-10" d="M434.74,387.38v25.31a9.76,9.76,0,0,1-.14,2.09,3.35,3.35,0,0,1-4.11,2.45,3.43,3.43,0,0,1-2.46-3V362.16a12.06,12.06,0,0,1-.1-1.55,3.42,3.42,0,0,1,3.88-3,3.46,3.46,0,0,1,2.82,2.87c.07.64-.85,1.94-.85,1.94Z"/><path class="cls-12" d="M404.3,422.37c3.11-1.9,6.23-3.82,9.38-5.7.63-.39,1.07-.67,1.06-1.59q-.14-14.1-.12-28.19V360.83l3.15,1.11c3.55,1.22,3.56,1.22,3.56,5v45.44a2.89,2.89,0,0,1-1.67,2.9c-3.77,2.1-7.23,4.71-11.4,6.13A12.65,12.65,0,0,1,404.3,422.37Z"/><path class="cls-12" d="M412.05,360.36c-4.62-.61-8.43-2.87-12.14-5.47-3.53-2.47-5.82-6-8.5-9.16-2.88-3.35-6.36-6-9.58-9s-6.71-5.13-9.84-7.89c-4.6-4-6.45-9.4-7.29-15.16a11.92,11.92,0,0,0-2.43-6c4.49-1.47,8.42,1,8.93,5.77a29.1,29.1,0,0,0,1.51,6.77A29.46,29.46,0,0,0,383.07,334c7.2,5.36,14,11.17,19.39,18.3C405,355.62,408.48,358.07,412.05,360.36Z"/><path class="cls-10" d="M294.75,373.2c-17.49-9.05-29.44-22.59-35.79-40.78a6.18,6.18,0,0,1-.63-2.53c1.82,3.94,3.38,8,5.75,11.67,11,17.05,26.7,27,47.38,29.41a31,31,0,0,0,3.47.29c1.5,0,1.57.51,1,1.69a11.3,11.3,0,0,0-.91,3.25c-.12,1.11-.55,1.55-1.7,1.44a77.92,77.92,0,0,1-17.43-3.39C295.54,373.87,295,373.68,294.75,373.2Z"/><path class="cls-13" d="M333.67,390.8c-2.62,3.93-3,7.94-.28,12.15-1.17.5-2.26.15-3.29.32a6.31,6.31,0,0,1-5.25-6.6,6.45,6.45,0,0,1,6.12-5.91C331.84,390.7,332.71,390.79,333.67,390.8Z"/><path class="cls-13" d="M339,410.4c-1.14,3.74-1.4,7.47.37,11.1.5,1,.39,1.34-.78,1.29H336.3a6.27,6.27,0,0,1-4.79-7.13C332.18,412.16,335,410.17,339,410.4Z"/><path class="cls-14" d="M377.48,288.55c.4,1.22,1.33,2.34.79,3.74l-1.13-3.42Z"/><path class="cls-15" d="M296.3,246.87a4.81,4.81,0,0,1-1.91,1.06l-.47-.43A3,3,0,0,1,296.3,246.87Z"/><path class="cls-16" d="M294.75,373.2c.56.18,1.11.35,1.18,1.05-.69.13-1.09-.36-1.59-.67Z"/><path class="cls-17" d="M249.85,297.53a3.23,3.23,0,0,1-3.19,3.26h-.06a3.33,3.33,0,0,1-3.31-3.25,3.26,3.26,0,0,1,3.2-3.12,3.14,3.14,0,0,1,3.35,2.9C249.84,297.39,249.85,297.46,249.85,297.53Z"/><path class="cls-18" d="M370.93,153.79l3.42.05a5.84,5.84,0,0,0,3.93-1.51c2.65-2.42,7.76-1.75,10.07,1a6.38,6.38,0,0,1-.46,8.73l-.08.07a5.54,5.54,0,0,1-.45.37,7.81,7.81,0,0,1-10.13-.82,2.39,2.39,0,0,0-2.1-.89h-9.57s-1.06.27-1.13,1.07c-.3,3.66-1.56,7.11-2.68,10.6-.35,1-.09,1.35.86,1.66a46.39,46.39,0,0,1,4.46,1.66,4.65,4.65,0,0,0,4.44.16,4.63,4.63,0,0,1,6,2,4.41,4.41,0,0,1-1.4,5.73,5.22,5.22,0,0,1-6.39-.63c-.7-.73-1.55-1.41-1.48-2.57,0-.5-.3-.73-.76-.9-2.26-.84-4.52-1.66-6.7-2.57-.67-.26-.83,0-1.07.49a61.08,61.08,0,0,1-6.48,9.35c-.48.58-.54.87.07,1.41,2.45,2.18,4.84,4.4,7.23,6.65a1.82,1.82,0,0,0,1.55.41c4.72-.32,9.23,4.17,7.44,8.49a7.29,7.29,0,0,1-9.58,4.12l-.14-.06c-3.33-1.27-4.65-3.52-4.31-7a1.27,1.27,0,0,0-.55-1.19c-2.36-2.18-4.79-4.36-7.1-6.56-.63-.58-1.06-.4-1.61,0a41.71,41.71,0,0,1-10.61,6.23c-.73.3-.79.66-.45,1.28a46.27,46.27,0,0,1,3,6.09c.23.59.73.6,1.25.76,1.65.5,3.14,1.27,3.66,3,.62,2.12-.22,3.88-2.41,5.08a5.38,5.38,0,0,1-6-.8,4.23,4.23,0,0,1-.4-5.53,1.57,1.57,0,0,0,.19-1.87c-.84-1.82-1.63-3.67-2.38-5.53-.29-.73-.67-.88-1.4-.64a50,50,0,0,1-11.91,2.42c-.82.07-1,.45-1,1.17,0,3,.08,6,0,8.93,0,1.37,1.13,1.79,1.83,2.51a5.61,5.61,0,0,1,.06,7.69l-.06.06c-3.69,3.44-6.79,3.64-10.94.71-2.75-1.93-2.62-7.39.23-9.22a2.6,2.6,0,0,0,1.43-2.59c-.13-2.65-.06-5.3,0-8,0-.75-.07-1.14-1-1.2a54.14,54.14,0,0,1-12.79-2.49c-.88-.28-1.05,0-1.35.67-.95,2-1.51,4.18-2.87,6a.62.62,0,0,0,.1.85h0c2.49,2.67,1.51,6.1-2,7.2a5.29,5.29,0,0,1-5.83-2,4.35,4.35,0,0,1,1-5.49,3.32,3.32,0,0,1,2.05-.93,1.93,1.93,0,0,0,1.81-1.51c.75-1.86,1.56-3.7,2.38-5.54.25-.56.26-.87-.41-1.17a62.77,62.77,0,0,1-10.4-6.1.87.87,0,0,0-1.26,0,.27.27,0,0,0-.07.08c-2.22,2-4.47,4.06-6.71,6.16a1.48,1.48,0,0,0-.59,1.44c.41,2.86-.89,5.08-3.73,6.59a7.59,7.59,0,0,1-7.83-.56c-3-2.25-3.83-5.47-2-8.33a7.28,7.28,0,0,1,6.71-3.38,2.67,2.67,0,0,0,2.14-.8c2.09-2,4.24-3.92,6.39-5.85.57-.52.77-.83.17-1.56-2.52-3-5.14-6-6.7-9.66-.23-.52-.47-.66-1.09-.43-2.34.9-4.69,1.75-7.06,2.57-.73.26-.66.82-.77,1.36a4.59,4.59,0,0,1-4.58,3.56,4.66,4.66,0,0,1-4.79-3.53,4.3,4.3,0,0,1,2.87-5.08,5.06,5.06,0,0,1,4.48.38,1.56,1.56,0,0,0,1.57.2c2.28-.91,4.58-1.79,6.91-2.62.54-.2.88-.35.54-.92-1.69-2.9-2.08-6.1-2.58-9.32-.42-2.72-3.15-1.77-3.15-1.77h-7.49a2.51,2.51,0,0,0-2.14.93,8,8,0,0,1-10.77.52,6.56,6.56,0,0,1-.79-9l.08-.09a7.74,7.74,0,0,1,.81-.81,8.06,8.06,0,0,1,10.36.28,3,3,0,0,0,2.45,1c3-.06,5.91-.11,8.87,0,1.35.06,1.7-.41,1.79-1.55a39.62,39.62,0,0,1,1.85-8.84.92.92,0,0,0,.08-.27c0-.85,1.44-1.43.77-2.2-.5-.57-1.61-.67-2.44-1-1.67-.62-3.36-1.2-5-1.88a1.86,1.86,0,0,0-1.89.18c-3,1.66-6.74.15-7.38-2.86a4.56,4.56,0,0,1,3.33-5.44l.06,0h.59c2.94-.57,5.37.9,5.88,3.55.13.75.43,1,1.18,1.29,2.14.69,4.24,1.53,6.32,2.35.68.27,1.09.31,1.43-.46,1.57-3.61,4.23-6.54,6.66-9.58.49-.61.71-1,0-1.57q-3.45-3-6.77-6.22c-.51-.49-.95-.3-1.59-.26a7.38,7.38,0,0,1-6.86-3,5.48,5.48,0,0,1-.13-6.67,7.51,7.51,0,0,1,9.8-2.44,6.18,6.18,0,0,1,3.71,6.31,1.31,1.31,0,0,0,.49,1.2q3.56,3.23,7.06,6.5c.4.39.65.32,1.07,0a64.57,64.57,0,0,1,10.35-6c.5-.21.54-.5.33-1q-1.4-3.11-2.71-6.26c-.23-.59-.68-.67-1.22-.78-2.16-.45-3.43-1.66-3.74-3.51a4.32,4.32,0,0,1,1.9-4.53,5.41,5.41,0,0,1,5.58.31c2.49,1.8,2.71,4,.58,6.4a.64.64,0,0,0-.07.86h0c1.34,1.82,1.91,4,2.86,6,.3.65.51.9,1.36.63a52.17,52.17,0,0,1,12.54-2.46c.95-.07,1.18-.38,1.16-1.23-.06-2.72-.08-5.46,0-8.17a2.14,2.14,0,0,0-1.2-2.14c-3.29-1.83-2.94-7.75-.05-9.52,4.22-2.57,7.6-2.32,11,1.25,1.55,1.62,1.44,5.71-.29,7.16a4.75,4.75,0,0,0-2,4.39,64,64,0,0,1,0,7.06c0,.83.19,1.25,1.13,1.31a46.36,46.36,0,0,1,11.51,2.35c.87.29,1.27.08,1.57-.75.5-1.34,1.1-2.66,1.7-4s1.19-2.48,0-4-.43-3.56.87-4.82a5.44,5.44,0,0,1,5.38-1c2.86,1.17,3.92,4,2.45,6.3a5.19,5.19,0,0,1-3.29,2c-.5.11-.95.2-1.1.72a44.57,44.57,0,0,1-2.94,6.06c-.42.72-.17,1,.56,1.33a39.83,39.83,0,0,1,10.06,5.85,1.24,1.24,0,0,0,1.8.12.93.93,0,0,0,.16-.18c2.2-2.17,4.45-4.32,6.86-6.3a1.61,1.61,0,0,0,.67-1.53c-.22-3,1.36-5.21,4.37-6.47a7.44,7.44,0,0,1,7.83,1.46c2,1.93,2.76,4.17,1.75,6.76s-4.55,4.61-7.61,4.2a2.12,2.12,0,0,0-1.71.67c-2.58,2-4.75,4.54-7.32,6.63-.34.28-.42.41-.06.73a22.25,22.25,0,0,1,4.11,5.23c1,1.6,2.38,3,3,4.8.23.6.57.56,1.12.35,2.13-.83,4.28-1.63,6.43-2.43a1.3,1.3,0,0,0,1-1,4.9,4.9,0,0,1,5.45-4,4.38,4.38,0,0,1,4.05,3,4.21,4.21,0,0,1-1.46,4.76,4.74,4.74,0,0,1-5.29.47,3,3,0,0,0-2.77-.13c-2,.74-3.81,1.5-5.78,2.19-.75.26-.95.52-.75,1.37,1.14,3.44,2.39,6.88,2.72,10.51.08.83.48.93,1.21.91C367.1,153.71,369,153.79,370.93,153.79Z"/><path class="cls-19" d="M326.32,173.74c5.82,0,9.8,4.3,9.71,8.86s-3.89,8.72-9.77,8.7c-5.12,0-9.72-3.57-9.67-8.92C316.66,177.44,321.21,173.78,326.32,173.74Z"/><path class="cls-19" d="M287.68,152.87c-4.87,0-9.2-3.65-9.22-8.34s4.41-8.48,9.28-8.41c5.14.07,9.12,3.59,9.11,8.4S292.88,152.79,287.68,152.87Z"/><path class="cls-19" d="M336.63,152.87c1.29-4.31,5.41-6.37,9.94-5.15a6.93,6.93,0,0,1,5.48,6,6.63,6.63,0,0,1-3.64,7.19c-4.51,2.44-10.54.62-11.78-4.44-.28-.22-.27-.62-.57-.84V153.7C336.37,153.48,336.36,153.07,336.63,152.87Z"/><path class="cls-19" d="M329.55,129.62c-.06,3.37-2.88,6.56-7.33,6.5a6.84,6.84,0,0,1-7-6.69c0-3.69,3.31-6.54,7.35-6.5A6.86,6.86,0,0,1,329.55,129.62Z"/><path class="cls-19" d="M298.13,178.42c-1,3.64-4.34,5.29-7.77,4.9a6.58,6.58,0,0,1,0-13.11c3.48-.39,6.8,1.26,7.77,4.9.28.22.27.62.57.83v1.68C298.4,177.8,298.41,178.2,298.13,178.42Z"/><path class="cls-19" d="M315.12,161.93a5,5,0,0,1-5.07-4.86c0-2.72,2.31-4.78,5.3-4.76a5.14,5.14,0,0,1,5.31,4.85C320.65,159.73,318.12,162,315.12,161.93Z"/><path class="cls-20" d="M335.84,152.87c0,.4,0,.79-.57.83C335.27,153.29,335.27,152.87,335.84,152.87Z"/><path class="cls-20" d="M335.28,155.62c.59,0,.58.43.57.84C335.27,156.4,335.27,156,335.28,155.62Z"/><path class="cls-21" d="M298.28,175.94c-.58,0-.58-.43-.56-.83C298.29,175.15,298.29,175.54,298.28,175.94Z"/><path class="cls-21" d="M297.72,178.42c0-.4,0-.8.56-.83C298.29,178,298.29,178.38,297.72,178.42Z"/><path class="cls-18" d="M133.23,269.79l2.1,0a5.74,5.74,0,0,0,3.88-1.48c2.6-2.38,7.58-1.72,9.88,1a6.22,6.22,0,0,1-.43,8.53l-.1.09a4.94,4.94,0,0,1-.44.36,7.68,7.68,0,0,1-10-.79,2.33,2.33,0,0,0-2.06-.87q-4.74.06-9.48,0c-.78,0-1,.19-1.12,1-.29,3.6-1.53,7-2.64,10.42-.33,1-.07,1.33.86,1.63a44.84,44.84,0,0,1,4.38,1.64,4.52,4.52,0,0,0,4.36.15,4.55,4.55,0,0,1,5.89,2,4.32,4.32,0,0,1-1.37,5.63,5.13,5.13,0,0,1-6.28-.61c-.7-.73-1.53-1.39-1.46-2.53,0-.49-.31-.72-.74-.88-2.22-.83-4.44-1.64-6.64-2.52-.67-.27-.82,0-1.07.47a58.49,58.49,0,0,1-6.36,9.19c-.48.57-.52.86.07,1.39,2.4,2.13,4.74,4.32,7.1,6.53a1.8,1.8,0,0,0,1.54.41c4.63-.32,9.06,4.1,7.3,8.33a7.14,7.14,0,0,1-9.48,4.05l-.14-.05c-3.28-1.24-4.58-3.45-4.24-6.93a1.25,1.25,0,0,0-.53-1.17c-2.33-2.14-4.68-4.28-7-6.45-.61-.57-1-.39-1.58.05a40.85,40.85,0,0,1-10.44,6.13c-.72.29-.79.64-.45,1.25a44.74,44.74,0,0,1,2.91,6c.23.59.72.6,1.22.76,1.63.48,3.09,1.24,3.61,3,.6,2.09-.22,3.82-2.37,5a5.31,5.31,0,0,1-5.94-.8,4.16,4.16,0,0,1-.39-5.43,1.54,1.54,0,0,0,.19-1.83c-.83-1.79-1.61-3.62-2.34-5.45-.29-.71-.66-.86-1.38-.63a48.94,48.94,0,0,1-11.7,2.38c-.82.07-1,.45-1,1.15,0,3,.07,5.86,0,8.79-.06,1.34,1.1,1.76,1.79,2.46a5.51,5.51,0,0,1,.06,7.56l-.06.06c-3.63,3.38-6.64,3.58-10.76.7-2.69-1.89-2.58-7.27.24-9.07a2.53,2.53,0,0,0,1.39-2.55c-.12-2.6-.05-5.2,0-7.81,0-.74-.06-1.13-1-1.2a52.39,52.39,0,0,1-12.62-2.44c-.85-.27-1,0-1.32.66-.95,2-1.48,4.12-2.85,5.94a.62.62,0,0,0,.1.84h0c2.45,2.62,1.49,6-2,7.07a5.16,5.16,0,0,1-5.69-2,4.25,4.25,0,0,1,.95-5.38,3.2,3.2,0,0,1,2-.92,1.94,1.94,0,0,0,1.78-1.49c.73-1.82,1.52-3.63,2.33-5.43.25-.57.26-.87-.4-1.16a61.91,61.91,0,0,1-10.23-5.94.84.84,0,0,0-1.23,0l-.07.09-6.64,6a1.45,1.45,0,0,0-.58,1.42c.41,2.81-.88,4.95-3.67,6.49a7.45,7.45,0,0,1-7.69-.57c-2.91-2.21-3.79-5.37-1.89-8.18A7.16,7.16,0,0,1,28,310.61a2.54,2.54,0,0,0,2.1-.79c2.06-2,4.17-3.86,6.29-5.75.55-.51.75-.81.16-1.53-2.47-3-5-5.94-6.64-9.5-.22-.5-.46-.64-1.07-.41-2.3.88-4.6,1.72-6.93,2.52-.72.25-.65.8-.75,1.33a4.55,4.55,0,0,1-4.51,3.5A4.56,4.56,0,0,1,12,296.51a4.22,4.22,0,0,1,2.78-4.95,4.94,4.94,0,0,1,4.41.37,1.47,1.47,0,0,0,1.53.19c2.25-.89,4.51-1.75,6.8-2.56.53-.2.87-.35.53-.91-1.67-2.85-2-6-2.53-9.16-.42-2.68-.31-2.7-3.09-2.7H14.62a2.4,2.4,0,0,0-2.07.91,7.72,7.72,0,0,1-10.43.49,6.32,6.32,0,0,1-.77-8.63l.09-.11a6.47,6.47,0,0,1,.78-.79,7.79,7.79,0,0,1,10,.27,2.93,2.93,0,0,0,2.38.95c2.88-.06,5.71-.11,8.56,0,1.3.06,1.63-.39,1.72-1.5a38.16,38.16,0,0,1,1.8-8.55.9.9,0,0,0,.07-.27c0-.82,1.39-1.39.75-2.13-.48-.55-1.56-.64-2.37-.94-1.62-.61-3.24-1.16-4.8-1.83a1.8,1.8,0,0,0-1.83.18c-2.88,1.61-6.53.14-7.15-2.77a4.44,4.44,0,0,1,3.25-5.27h-.28c2.9-.57,5.42.91,5.93,3.58.12.77.43,1,1.19,1.31,2.16.7,4.27,1.53,6.36,2.37.69.27,1.11.31,1.44-.47,1.6-3.64,4.27-6.58,6.76-9.66.49-.61.7-1,0-1.58q-3.48-3-6.82-6.26c-.54-.5-1-.31-1.61-.26a7.42,7.42,0,0,1-6.91-3,5.51,5.51,0,0,1-.14-6.71,7.52,7.52,0,0,1,9.82-2.45A6.19,6.19,0,0,1,34.11,230a1.32,1.32,0,0,0,.49,1.21c2.38,2.18,4.76,4.35,7.11,6.56.42.38.67.31,1.08,0a63.89,63.89,0,0,1,10.43-6c.51-.23.55-.51.34-1q-1.43-3.15-2.73-6.32c-.24-.59-.68-.67-1.24-.78-2.17-.46-3.46-1.69-3.76-3.54a4.32,4.32,0,0,1,2.11-4.56,5.46,5.46,0,0,1,5.63.31c2.51,1.81,2.72,4,.58,6.44a.64.64,0,0,0-.07.87h0c1.35,1.84,1.93,4,2.89,6,.3.66.52.91,1.37.64A53.1,53.1,0,0,1,71,227.33c1-.07,1.19-.38,1.17-1.24,0-2.75-.08-5.5,0-8.23a2.17,2.17,0,0,0-1.21-2.16c-3.31-1.85-3-7.8-.06-9.59,4.26-2.59,7.64-2.33,11.05,1.26,1.57,1.64,1.45,5.76-.3,7.22A4.84,4.84,0,0,0,79.7,219a60.23,60.23,0,0,1,0,7.11c0,.84.2,1.26,1.14,1.32a47.16,47.16,0,0,1,11.5,2.32c.88.29,1.28.08,1.59-.76.49-1.35,1.1-2.68,1.71-4s1.2-2.51,0-4-.44-3.58.88-4.85a5.51,5.51,0,0,1,5.42-1c2.9,1.18,4,4,2.46,6.36a5.2,5.2,0,0,1-3.31,2c-.5.12-1,.21-1.12.73a43.35,43.35,0,0,1-3,6.09c-.42.74-.16,1,.58,1.34a40.08,40.08,0,0,1,10.12,5.92,1.26,1.26,0,0,0,1.82.06l.11-.13c2.22-2.19,4.48-4.35,6.91-6.35a1.62,1.62,0,0,0,.69-1.54c-.23-3,1.36-5.25,4.39-6.52a7.47,7.47,0,0,1,7.9,1.46c2,1.95,2.78,4.21,1.76,6.82s-4.59,4.64-7.64,4.23a2.14,2.14,0,0,0-1.73.68c-2.61,2-4.83,4.57-7.38,6.68-.34.28-.43.41-.06.73a22.24,22.24,0,0,1,4.11,5.18c1,1.6,2.39,3,3.07,4.84.23.6.57.57,1.12.36,2.15-.85,4.31-1.65,6.48-2.46a1.28,1.28,0,0,0,1-1,5,5,0,0,1,5.47-3.89,4.41,4.41,0,0,1,4.09,3,4.21,4.21,0,0,1-1.47,4.78A4.78,4.78,0,0,1,133,255a3,3,0,0,0-2.81-.13c-2,.75-3.86,1.52-5.79,2.2-.74.26-1,.53-.74,1.38,1.14,3.48,2.39,6.93,2.73,10.59.08.85.48.95,1.21.93A37.49,37.49,0,0,1,133.23,269.79Z"/><path class="cls-19" d="M86.28,301.74c5.83,0,9.81,4.3,9.71,8.86s-3.83,8.72-9.77,8.7c-5.11,0-9.71-3.57-9.65-8.92C76.63,305.44,81.16,301.78,86.28,301.74Z"/><path class="cls-19" d="M47.65,280.87c-4.79,0-9.2-3.65-9.21-8.34s4.41-8.48,9.27-8.41c5.15.07,9.13,3.59,9.12,8.4S52.85,280.79,47.65,280.87Z"/><path class="cls-19" d="M96.16,280.87c1.29-4.31,5.41-6.37,9.93-5.15a6.92,6.92,0,0,1,5.48,6,6.6,6.6,0,0,1-3.64,7.19c-4.51,2.44-10.54.62-11.77-4.44-.29-.22-.28-.62-.57-.84v-1.91C95.89,281.48,95.88,281.07,96.16,280.87Z"/><path class="cls-19" d="M89.52,257.62c-.06,3.37-2.88,6.56-7.34,6.5a6.83,6.83,0,0,1-7-6.69c0-3.69,3.3-6.54,7.34-6.5A6.86,6.86,0,0,1,89.52,257.62Z"/><path class="cls-19" d="M57.66,306.42c-1,3.64-4.34,5.29-7.77,4.9a6.58,6.58,0,0,1,0-13.11c3.48-.39,6.81,1.26,7.77,4.9.29.22.28.62.57.83v1.68C57.94,305.8,58,306.2,57.66,306.42Z"/><path class="cls-19" d="M75.09,289.93A5,5,0,0,1,70,285.07c0-2.72,2.32-4.78,5.31-4.76a5.2,5.2,0,0,1,5.31,4.85C80.62,287.73,78.08,290,75.09,289.93Z"/><path class="cls-20" d="M95.8,280.87c0,.4,0,.79-.56.83C95.24,281.29,95.24,280.87,95.8,280.87Z"/><path class="cls-20" d="M95.25,283.62c.58,0,.57.43.56.84C95.24,284.4,95.24,284,95.25,283.62Z"/><path class="cls-21" d="M58.26,303.94c-.59,0-.59-.43-.57-.83C58.27,303.15,58.27,303.54,58.26,303.94Z"/><path class="cls-21" d="M57.69,306.42c0-.4,0-.8.57-.83C58.27,306,58.27,306.38,57.69,306.42Z"/><path class="cls-18" d="M618.85,586.76h2.92a5.66,5.66,0,0,0,4.65-1.53c2.65-2.52,7.7-1.83,10,1a6.85,6.85,0,0,1-.43,9.06l-.11.1a5.2,5.2,0,0,1-.44.38,7.52,7.52,0,0,1-10.09-.84,2.34,2.34,0,0,0-2.09-.93q-4.81.08-9.62,0c-.79,0-1.07.21-1.14,1.05-.3,3.83-1.56,7.43-2.67,11.08-.34,1.05-.08,1.4.86,1.72a44.55,44.55,0,0,1,4.45,1.75c1.49.69,2.74,1.05,4.42.15a4.54,4.54,0,0,1,6,2.11,4.72,4.72,0,0,1-1.41,6,5,5,0,0,1-6.37-.65c-.69-.77-1.54-1.48-1.47-2.69,0-.52-.31-.76-.75-.93-2.25-.88-4.5-1.74-6.73-2.68-.67-.28-.83,0-1.07.5a63.23,63.23,0,0,1-6.46,9.76c-.48.61-.54.91.07,1.47,2.44,2.27,4.81,4.6,7.21,6.94a1.75,1.75,0,0,0,1.55.43c4.69-.33,9.19,4.35,7.41,8.86-1.58,4.08-5.87,6-9.62,4.3l-.12-.06c-3.33-1.32-4.65-3.67-4.3-7.36a1.4,1.4,0,0,0-.54-1.24c-2.37-2.28-4.76-4.55-7.09-6.85-.63-.6-1.06-.41-1.61,0a40.82,40.82,0,0,1-10.58,6.5c-.73.32-.8.69-.46,1.34a49,49,0,0,1,3,6.41c.23.62.73.63,1.24.8,1.65.52,3.14,1.33,3.66,3.16.61,2.21-.23,4.05-2.41,5.25a5.15,5.15,0,0,1-6-.84,4.56,4.56,0,0,1-.4-5.77,1.67,1.67,0,0,0,.19-1.95c-.85-1.9-1.63-3.83-2.37-5.78-.29-.75-.67-.91-1.4-.67a46.66,46.66,0,0,1-11.87,2.53c-.83.09-1,.48-1,1.22,0,3.16.09,6.24,0,9.33,0,1.43,1.12,1.87,1.83,2.62a6.07,6.07,0,0,1,.06,8l-.06.06c-3.69,3.59-6.74,3.8-10.91.74-2.75-2-2.62-7.72.23-9.62a2.76,2.76,0,0,0,1.42-2.71c-.13-2.77-.06-5.53,0-8.3,0-.79-.07-1.2-1-1.26a51.8,51.8,0,0,1-12.75-2.61c-.86-.28-1,0-1.33.71-1,2.1-1.5,4.37-2.89,6.3a.67.67,0,0,0,.1.89h0c2.48,2.77,1.5,6.36-2,7.5a5.14,5.14,0,0,1-5.78-2.1,4.67,4.67,0,0,1,1-5.72,3.25,3.25,0,0,1,2-1,2,2,0,0,0,1.8-1.56c.75-2,1.55-3.87,2.37-5.79.26-.59.27-.91-.4-1.23a61.58,61.58,0,0,1-10.37-6.3.85.85,0,0,0-1.26,0l-.07.09L521,634.41a1.53,1.53,0,0,0-.58,1.5c.41,3-.89,5.26-3.73,6.89a7.27,7.27,0,0,1-7.79-.6c-2.95-2.35-3.85-5.7-1.92-8.69a7.18,7.18,0,0,1,6.73-3.53,2.56,2.56,0,0,0,2.14-.83c2.08-2.1,4.22-4.1,6.37-6.11.56-.55.76-.86.17-1.63-2.51-3.15-5.13-6.31-6.74-10.08-.22-.54-.47-.69-1.08-.44-2.33.94-4.67,1.84-7,2.68-.74.26-.65.85-.77,1.41a4.62,4.62,0,0,1-4.56,3.72,4.68,4.68,0,0,1-4.81-3.69,4.54,4.54,0,0,1,2.89-5.26,4.81,4.81,0,0,1,4.46.4,1.46,1.46,0,0,0,1.56.2c2.28-.94,4.57-1.86,6.89-2.72.55-.21.89-.37.55-1-1.69-3-2.08-6.36-2.57-9.73-.42-2.83-.32-2.86-3.15-2.86h-6.86a2.39,2.39,0,0,0-2.07.95,7.44,7.44,0,0,1-10.42.51,6.91,6.91,0,0,1-.7-9.13,7.1,7.1,0,0,1,.79-.85,7.55,7.55,0,0,1,10,.29,2.84,2.84,0,0,0,2.37,1c2.88-.06,5.76-.12,8.56,0,1.3.06,1.64-.41,1.72-1.58a42.51,42.51,0,0,1,1.81-9,.9.9,0,0,0,.07-.27c0-.85,1.39-1.45.75-2.23-.49-.58-1.56-.67-2.37-1-1.62-.63-3.26-1.21-4.8-1.91a1.8,1.8,0,0,0-1.84.19c-3.72,2.16-8.69-1-6.83-5.87a4.15,4.15,0,0,1,2.92-2.55h-.1c2.95-.6,5.39.95,5.9,3.73.13.8.44,1,1.19,1.36,2.14.73,4.25,1.6,6.33,2.47.69.29,1.11.33,1.44-.48,1.58-3.8,4.25-6.88,6.73-10.07.5-.64.71-1.05,0-1.65q-3.43-3.15-6.79-6.53c-.52-.52-1-.32-1.59-.27a7.26,7.26,0,0,1-6.89-3.15,6,6,0,0,1-.14-7,7.29,7.29,0,0,1,9.84-2.55,6.51,6.51,0,0,1,3.73,6.61,1.34,1.34,0,0,0,.49,1.26c2.37,2.27,4.74,4.54,7.08,6.84.41.4.65.33,1.07,0a63.94,63.94,0,0,1,10.39-6.3c.51-.23.55-.53.33-1-.93-2.19-1.84-4.38-2.72-6.59-.23-.61-.67-.69-1.23-.81a4.37,4.37,0,0,1-3.74-3.69,4.58,4.58,0,0,1,2.09-4.75,5.21,5.21,0,0,1,5.61.31c2.5,1.88,2.71,4.21.58,6.73a.67.67,0,0,0-.07.9h0c1.35,1.92,1.93,4.2,2.89,6.3.3.68.52.95,1.36.66a50.45,50.45,0,0,1,12.58-2.58c1-.07,1.19-.4,1.17-1.29,0-2.87-.08-5.74,0-8.58a2.26,2.26,0,0,0-1.2-2.25c-3.3-1.93-3-8.14-.06-10,4.24-2.71,7.6-2.44,11,1.31,1.56,1.7,1.45,6-.29,7.52a5.1,5.1,0,0,0-1.93,4.61,65.6,65.6,0,0,1,0,7.42c0,.87.2,1.31,1.14,1.38A44.54,44.54,0,0,1,578.9,545c.88.31,1.28.09,1.58-.78.5-1.41,1.1-2.8,1.7-4.21s1.19-2.61,0-4.2-.43-3.74.88-5.06a5.29,5.29,0,0,1,5.4-1c2.88,1.23,3.93,4.13,2.45,6.63a5.16,5.16,0,0,1-3.3,2.1c-.5.12-1,.22-1.1.75a49,49,0,0,1-3,6.31c-.42.76-.17,1,.56,1.39a39.87,39.87,0,0,1,10.1,6.17,1.19,1.19,0,0,0,1.79.08l.13-.15c2.21-2.28,4.47-4.53,6.88-6.62a1.72,1.72,0,0,0,.68-1.61c-.22-3.15,1.36-5.47,4.38-6.79a7.24,7.24,0,0,1,7.87,1.52,6.31,6.31,0,0,1,1.75,7.11,7.6,7.6,0,0,1-7.61,4.41,2.06,2.06,0,0,0-1.79.56c-2.6,2.1-4.81,4.77-7.35,7-.34.3-.42.43-.06.77a23,23,0,0,1,4.09,5.4c1,1.67,2.39,3.15,3.06,5,.23.63.57.6,1.11.37,2.15-.87,4.3-1.71,6.46-2.55a1.32,1.32,0,0,0,1-1.12,5,5,0,0,1,5.45-4,4.43,4.43,0,0,1,4.08,3.15,4.51,4.51,0,0,1-1.47,5,4.58,4.58,0,0,1-5.3.49,2.89,2.89,0,0,0-2.79-.12c-1.93.77-3.85,1.56-5.77,2.29-.75.27-1,.54-.75,1.43,1.14,3.63,2.39,7.23,2.72,11,.08.89.48,1,1.21,1C615.45,586.68,617.14,586.76,618.85,586.76Z"/><path class="cls-19" d="M583.84,615.74c5.83,0,9.8,4.3,9.71,8.86s-3.83,8.72-9.77,8.7c-5.11,0-9.71-3.57-9.66-8.92C574.19,619.44,578.71,615.78,583.84,615.74Z"/><path class="cls-19" d="M545.21,594.87c-4.86,0-9.2-3.65-9.22-8.34s4.42-8.48,9.28-8.41c5.15.07,9.13,3.59,9.11,8.4S550.41,594.79,545.21,594.87Z"/><path class="cls-19" d="M593.38,594.87c1.28-4.31,5.41-6.37,9.94-5.15a6.93,6.93,0,0,1,5.48,6,6.62,6.62,0,0,1-3.64,7.19c-4.52,2.44-10.54.62-11.78-4.44-.29-.22-.28-.62-.56-.84v-1.91C593.11,595.48,593.1,595.07,593.38,594.87Z"/><path class="cls-19" d="M587.08,571.62c-.06,3.37-2.88,6.56-7.34,6.5a6.83,6.83,0,0,1-7-6.69c0-3.69,3.29-6.54,7.33-6.5A6.86,6.86,0,0,1,587.08,571.62Z"/><path class="cls-19" d="M555.84,620.42c-1,3.64-4.34,5.29-7.76,4.9a6.58,6.58,0,0,1,0-13.11c3.47-.39,6.8,1.26,7.76,4.9.29.22.28.62.57.83v1.68C556.14,619.8,556.14,620.2,555.84,620.42Z"/><path class="cls-19" d="M572.64,603.93a5,5,0,0,1-5.07-4.86c0-2.72,2.31-4.78,5.31-4.76a5.2,5.2,0,0,1,5.31,4.85C578.18,601.73,575.64,604,572.64,603.93Z"/><path class="cls-20" d="M593.36,594.87c0,.4,0,.79-.56.83C592.8,595.29,592.8,594.87,593.36,594.87Z"/><path class="cls-20" d="M592.81,597.62c.58,0,.57.43.56.84C592.8,598.4,592.8,598,592.81,597.62Z"/><path class="cls-21" d="M555.82,617.94c-.59,0-.59-.43-.57-.83C555.83,617.15,555.83,617.54,555.82,617.94Z"/><path class="cls-21" d="M555.25,620.42c0-.4,0-.8.57-.83C555.83,620,555.83,620.38,555.25,620.42Z"/><path class="cls-18" d="M206.49,64.79h2.75a6.51,6.51,0,0,0,4.58-1.61c2.61-2.38,7.66-1.72,9.89,1a6.23,6.23,0,0,1-.43,8.54l-.09.08a4.94,4.94,0,0,1-.44.36,7.66,7.66,0,0,1-9.95-.8,2.39,2.39,0,0,0-2.06-.87q-4.71.06-9.45,0c-.78,0-1,.2-1.12,1-.29,3.61-1.53,7-2.64,10.43-.33,1-.08,1.33.86,1.63,1.48.48,2.87,1,4.38,1.63s2.7,1,4.36.15a4.56,4.56,0,0,1,5.89,2,4.32,4.32,0,0,1-1.38,5.63,5.12,5.12,0,0,1-6.28-.62c-.68-.72-1.52-1.38-1.45-2.52,0-.49-.31-.72-.74-.88-2.23-.83-4.44-1.64-6.64-2.53-.66-.26-.81,0-1.06.48A58.49,58.49,0,0,1,189.11,97c-.48.57-.53.86.07,1.39,2.41,2.13,4.78,4.32,7.11,6.53a1.78,1.78,0,0,0,1.53.41c4.63-.32,9.06,4.09,7.31,8.33a7.18,7.18,0,0,1-9.46,4.06l-.13-.06c-3.27-1.25-4.57-3.46-4.24-6.9a1.25,1.25,0,0,0-.53-1.17c-2.33-2.15-4.68-4.28-7-6.45-.61-.57-1-.39-1.58,0a40.7,40.7,0,0,1-10.42,6.12c-.72.3-.79.65-.44,1.26a47.76,47.76,0,0,1,2.87,6c.22.58.71.59,1.22.75,1.63.49,3.08,1.25,3.6,3,.61,2.09-.21,3.82-2.37,5a5.3,5.3,0,0,1-5.94-.79,4.13,4.13,0,0,1-.39-5.43,1.51,1.51,0,0,0,.18-1.84c-.82-1.79-1.6-3.61-2.33-5.44-.28-.71-.66-.86-1.38-.63a48.84,48.84,0,0,1-11.7,2.38c-.82.07-1,.44-1,1.15,0,2.93.08,5.86,0,8.78,0,1.35,1.11,1.76,1.8,2.47a5.49,5.49,0,0,1,.06,7.55l-.06.07c-3.63,3.37-6.69,3.57-10.75.69-2.7-1.89-2.58-7.26.23-9.06a2.55,2.55,0,0,0,1.4-2.55c-.13-2.6-.06-5.21,0-7.82,0-.74-.07-1.13-1-1.19a52.39,52.39,0,0,1-12.62-2.44c-.85-.27-1,0-1.32.66-.95,2-1.48,4.11-2.81,5.92a.62.62,0,0,0,.09.83h0c2.45,2.61,1.48,6-2,7.07a5.19,5.19,0,0,1-5.74-2,4.27,4.27,0,0,1,.95-5.39,3.28,3.28,0,0,1,2-.92,1.93,1.93,0,0,0,1.78-1.48c.74-1.83,1.53-3.63,2.34-5.44.26-.56.26-.86-.4-1.16a61.41,61.41,0,0,1-10.22-5.94.88.88,0,0,0-1.25,0l-.06.08-6.59,6a1.44,1.44,0,0,0-.59,1.42c.41,2.8-.87,5-3.66,6.48a7.46,7.46,0,0,1-7.66-.56c-2.87-2.21-3.82-5.37-1.91-8.18a7.16,7.16,0,0,1,6.6-3.32,2.55,2.55,0,0,0,2.11-.79c2-2,4.16-3.86,6.29-5.75.55-.51.75-.81.16-1.53-2.47-3-5.06-5.93-6.63-9.5-.22-.51-.47-.65-1.09-.42-2.29.89-4.59,1.73-6.92,2.53-.73.25-.65.8-.76,1.33a4.52,4.52,0,0,1-4.5,3.5,4.57,4.57,0,0,1-4.69-3.47,4.25,4.25,0,0,1,2.8-5,4.93,4.93,0,0,1,4.39.38,1.49,1.49,0,0,0,1.54.19c2.25-.89,4.51-1.75,6.8-2.56.53-.2.87-.35.53-.91-1.66-2.85-2-6-2.53-9.16-.42-2.68-.31-2.7-3.09-2.36H89.91a1.63,1.63,0,0,0-2,.55,7.59,7.59,0,0,1-10.3.49,6.25,6.25,0,0,1-.74-8.55l.07-.09a6.3,6.3,0,0,1,.77-.78,7.71,7.71,0,0,1,9.91.27,2.86,2.86,0,0,0,2.34.94c2.81-.06,5.65-.11,8.47,0,1.28.06,1.61-.39,1.69-1.49a38,38,0,0,1,1.79-8.45.76.76,0,0,0,.06-.26c0-.81,1.38-1.37.74-2.1-.48-.55-1.53-.64-2.33-.94-1.61-.59-3.22-1.14-4.79-1.8a1.77,1.77,0,0,0-1.81.18c-2.82,1.58-6.46.14-7.07-2.74a4.39,4.39,0,0,1,3.22-5.22H90c2.88-.57,5.34.9,5.84,3.53.13.75.44,1,1.18,1.28,2.12.69,4.2,1.51,6.26,2.33.69.27,1.1.31,1.42-.45,1.57-3.59,4.2-6.5,6.66-9.52.49-.6.7-1,0-1.56q-3.42-3-6.71-6.16c-.52-.5-1-.31-1.58-.26a7.34,7.34,0,0,1-6.8-3,5.43,5.43,0,0,1-.15-6.61A7.48,7.48,0,0,1,105.85,19a6.12,6.12,0,0,1,3.69,6.26A1.26,1.26,0,0,0,110,26.4c2.34,2.14,4.68,4.28,7,6.46.41.38.65.31,1.06,0a62.21,62.21,0,0,1,10.27-5.93c.51-.22.55-.5.34-1-1-2.06-1.83-4.13-2.69-6.21-.24-.59-.67-.67-1.22-.78a4.28,4.28,0,0,1-1.64-8,5.36,5.36,0,0,1,5.55.3c2.47,1.78,2.69,4,.57,6.35a.63.63,0,0,0-.07.85h0c1.34,1.82,1.92,4,2.81,6,.38.78.61,1,2,.37a27.71,27.71,0,0,1,11.22-2.18c1.49,0,1.79-.22,1.77-1.23,0-2.71-.09-5.42,0-8.11a2.09,2.09,0,0,0-1.19-2.12c-3.27-1.82-2.92-7.69-.06-9.45,4.19-2.55,7.52-2.3,10.89,1.24,1.53,1.61,1.43,5.67-.3,7.11a4.76,4.76,0,0,0-1.92,4.35,54.66,54.66,0,0,1,0,7c0,.83.2,1.24,1.13,1.3A46.23,46.23,0,0,1,167,25c.87.29,1.27.08,1.57-.74.48-1.33,1.08-2.64,1.68-3.93s1.18-2.48,0-4-.43-3.53.87-4.78a5.38,5.38,0,0,1,5.34-.94c2.87,1.16,3.89,3.89,2.42,6.25a5.11,5.11,0,0,1-3.26,2c-.5.12-1,.21-1.1.73a44.09,44.09,0,0,1-2.88,6c-.41.72-.15,1,.57,1.32a39.5,39.5,0,0,1,10,5.82,1.24,1.24,0,0,0,1.79.08.86.86,0,0,0,.13-.14c2.19-2.17,4.42-4.29,6.81-6.26a1.6,1.6,0,0,0,.67-1.52c-.22-2.93,1.34-5.16,4.33-6.42A7.43,7.43,0,0,1,203.67,20c2,1.92,2.73,4.14,1.73,6.71s-4.52,4.58-7.52,4.16a2.13,2.13,0,0,0-1.78.54c-2.57,2-4.72,4.5-7.26,6.57-.34.28-.42.41-.06.72a21.59,21.59,0,0,1,4,5.11c1,1.58,2.37,3,3,4.76.23.59.56.56,1.1.35,2.12-.83,4.25-1.62,6.39-2.41a1.26,1.26,0,0,0,1-1,4.88,4.88,0,0,1,5.39-3.83,4.37,4.37,0,0,1,4,3,4.09,4.09,0,0,1-1.45,4.71,4.68,4.68,0,0,1-5.24.47,3,3,0,0,0-2.77-.12c-1.91.73-3.83,1.48-5.75,2.16-.75.26-1,.52-.75,1.36,1.13,3.43,2.37,6.83,2.7,10.43.08.83.48.93,1.2.91A41.75,41.75,0,0,1,206.49,64.79Z"/><path class="cls-19" d="M164,89.74c5.83,0,9.81,4.3,9.72,8.86s-3.89,8.72-9.78,8.7c-5.11,0-9.72-3.57-9.66-8.92C154.31,93.44,158.84,89.78,164,89.74Z"/><path class="cls-19" d="M125.33,68.87c-4.86,0-9.19-3.65-9.21-8.34s4.41-8.48,9.27-8.41c5.15.07,9.13,3.59,9.12,8.4S130.53,68.79,125.33,68.87Z"/><path class="cls-19" d="M136.52,44.87c1.3-4.31,5.42-6.37,9.95-5.15a7,7,0,0,1,5.48,6,6.65,6.65,0,0,1-3.65,7.19c-4.51,2.44-10.54.62-11.78-4.44-.29-.22-.28-.62-.56-.84V45.72C136.25,45.48,136.24,45.07,136.52,44.87Z"/><path class="cls-19" d="M167.2,45.62c0,3.37-2.87,6.56-7.33,6.5a6.9,6.9,0,0,1-7-6.69c0-3.69,3.31-6.54,7.35-6.5A6.87,6.87,0,0,1,167.2,45.62Z"/><path class="cls-19" d="M135.51,94.42c-1,3.64-4.35,5.29-7.78,4.9a6.58,6.58,0,0,1,0-13.11c3.48-.39,6.8,1.26,7.78,4.9.28.22.27.62.56.83v1.68C135.78,93.8,135.79,94.2,135.51,94.42Z"/><path class="cls-19" d="M152.77,77.93a5,5,0,0,1-5.08-4.86c0-2.72,2.32-4.78,5.31-4.76a5.19,5.19,0,0,1,5.3,4.85C158.29,75.73,155.76,78,152.77,77.93Z"/><path class="cls-20" d="M173.48,68.87c0,.4,0,.79-.56.83C173,69.29,173,68.87,173.48,68.87Z"/><path class="cls-20" d="M173,71.62c.58,0,.57.43.56.84C173,72.4,173,72,173,71.62Z"/><path class="cls-21" d="M135.93,91.94c-.58,0-.58-.43-.56-.83C135.94,91.15,135.94,91.54,135.93,91.94Z"/><path class="cls-21" d="M135.37,94.42c0-.4,0-.8.56-.83C135.94,94,135.94,94.38,135.37,94.42Z"/><path class="cls-18" d="M666.07,171.79H668a5.8,5.8,0,0,0,4.67-1.46c2.66-2.42,7.78-1.74,10.06,1a6.34,6.34,0,0,1-.45,8.69l-.09.08a4,4,0,0,1-.45.37,7.78,7.78,0,0,1-10.12-.81,2.36,2.36,0,0,0-2.09-.89h-9.39s-1,.18-1.12,1c-.29,3.62-1.54,7-2.65,10.46-.32,1-.08,1.33.85,1.63,1.5.48,2.88,1,4.41,1.64s2.7,1,4.37.15a4.57,4.57,0,0,1,5.9,2,4.33,4.33,0,0,1-1.38,5.65,5.13,5.13,0,0,1-6.29-.62c-.69-.72-1.54-1.39-1.47-2.53,0-.49-.3-.72-.74-.88-2.22-.83-4.45-1.65-6.7-2.54-.66-.26-.82,0-1.06.48a58.93,58.93,0,0,1-6.39,9.22c-.47.57-.51.86.07,1.39q3.62,3.21,7.13,6.55a1.8,1.8,0,0,0,1.54.41c4.64-.32,9.08,4.1,7.32,8.36a7.18,7.18,0,0,1-9.47,4.06l-.13,0c-3.3-1.26-4.6-3.47-4.25-6.92a1.28,1.28,0,0,0-.54-1.18c-2.34-2.15-4.69-4.29-7-6.46-.62-.58-1-.4-1.59,0a41.26,41.26,0,0,1-10.46,6.13c-.71.3-.78.65-.45,1.27a44.69,44.69,0,0,1,2.88,6.05c.23.59.72.6,1.22.76,1.64.49,3.1,1.25,3.62,3,.61,2.09-.21,3.83-2.38,5a5.33,5.33,0,0,1-6-.79,4.18,4.18,0,0,1-.38-5.45,1.54,1.54,0,0,0,.18-1.84c-.82-1.8-1.61-3.62-2.35-5.46-.27-.71-.66-.86-1.38-.63a49.59,49.59,0,0,1-11.73,2.39c-.82.07-1,.44-1,1.15,0,2.94.09,5.88,0,8.8,0,1.36,1.11,1.77,1.8,2.48a5.51,5.51,0,0,1,.07,7.56l-.07.08c-3.64,3.38-6.71,3.58-10.78.7-2.71-1.9-2.58-7.29.23-9.09a2.6,2.6,0,0,0,1.41-2.56c-.13-2.61-.07-5.22,0-7.84,0-.74-.08-1.13-1-1.19a53.12,53.12,0,0,1-12.66-2.45c-.85-.27-1,0-1.32.66-1,2-1.49,4.12-2.82,5.94a.62.62,0,0,0,.09.83h0c2.45,2.62,1.48,6-2,7.09a5.2,5.2,0,0,1-5.75-2,4.27,4.27,0,0,1,1-5.4,3.18,3.18,0,0,1,2-.92,1.94,1.94,0,0,0,1.78-1.49c.74-1.83,1.53-3.64,2.35-5.45.25-.56.25-.87-.41-1.17a62.23,62.23,0,0,1-10.26-5.95.85.85,0,0,0-1.23,0l-.08.09c-2.17,2-4.4,4.05-6.6,6.06a1.43,1.43,0,0,0-.58,1.43c.4,2.81-.89,5-3.68,6.5a7.48,7.48,0,0,1-7.67-.57c-2.87-2.21-3.83-5.38-1.91-8.2a7.15,7.15,0,0,1,6.62-3.33,2.61,2.61,0,0,0,2.1-.79c2.06-2,4.18-3.87,6.31-5.77.55-.51.75-.81.17-1.53-2.48-3-5.08-6-6.66-9.53-.23-.51-.47-.65-1.08-.42-2.3.89-4.61,1.74-6.95,2.54-.72.25-.65.8-.75,1.33a4.79,4.79,0,0,1-9.22,0,4.24,4.24,0,0,1,2.8-5,5,5,0,0,1,4.4.38,1.52,1.52,0,0,0,1.56.19c2.24-.89,4.51-1.76,6.81-2.57.53-.2.86-.35.53-.91-1.67-2.86-2.05-6-2.53-9.19-.43-2.68-3.11-1.81-3.11-1.81h-7.13a2.51,2.51,0,0,0-2.14.93,7.94,7.94,0,0,1-10.77.52,6.54,6.54,0,0,1-.8-8.93l.09-.11a6.88,6.88,0,0,1,.81-.81,8.06,8.06,0,0,1,10.35.28,3,3,0,0,0,2.46,1c3-.06,5.9-.11,8.85,0,1.34.07,1.68-.4,1.77-1.55a40.32,40.32,0,0,1,1.86-8.84.77.77,0,0,0,.07-.27c0-.85,1.45-1.44.78-2.2-.5-.58-1.61-.67-2.44-1-1.68-.62-3.36-1.19-5-1.88a1.84,1.84,0,0,0-1.89.19c-2.94,1.65-6.75.14-7.39-2.86a4.6,4.6,0,0,1,3.36-5.46h-.78c2.91-.57,5.41.91,5.93,3.58.13.76.43,1,1.19,1.3,2.15.71,4.26,1.54,6.36,2.37.69.28,1.11.32,1.44-.46,1.6-3.65,4.27-6.59,6.81-9.67.5-.61.71-1,0-1.58q-3.47-3-6.81-6.26c-.52-.5-1-.31-1.6-.26a7.45,7.45,0,0,1-6.91-3,5.52,5.52,0,0,1-.14-6.72,7.58,7.58,0,0,1,9.88-2.46,6.22,6.22,0,0,1,3.74,6.36,1.29,1.29,0,0,0,.5,1.21c2.37,2.18,4.75,4.35,7.11,6.55.42.4.66.32,1.08,0a64.74,64.74,0,0,1,10.42-6c.52-.22.56-.51.34-1-1-2.09-1.85-4.2-2.72-6.31-.24-.59-.68-.67-1.24-.79-2.17-.46-3.46-1.68-3.77-3.54a4.35,4.35,0,0,1,2.11-4.56,5.46,5.46,0,0,1,5.63.31c2.51,1.81,2.72,4.06.58,6.45a.62.62,0,0,0-.08.84l0,0h0c1.35,1.85,1.94,4.06,2.85,6.09.31.65.52.91,1.38.63a52.5,52.5,0,0,1,12.64-2.47c1-.07,1.18-.38,1.16-1.24,0-2.75-.07-5.5,0-8.23a2.14,2.14,0,0,0-1.2-2.16c-3.33-1.85-2.92-7.81-.06-9.6,4.26-2.59,7.63-2.33,11,1.26,1.56,1.64,1.46,5.76-.29,7.22a4.78,4.78,0,0,0-1.95,4.42,60.23,60.23,0,0,1,0,7.11c0,.84.2,1.26,1.15,1.32a47.24,47.24,0,0,1,11.39,2.26c.88.3,1.29.08,1.59-.75.5-1.35,1.1-2.68,1.71-4s1.2-2.52,0-4.06-.44-3.58.89-4.86a5.46,5.46,0,0,1,5.41-1c2.92,1.17,4,4,2.46,6.35a5.14,5.14,0,0,1-3.3,2c-.51.12-1,.22-1.12.74a45.1,45.1,0,0,1-3,6.09c-.41.74-.15,1,.58,1.35a40.24,40.24,0,0,1,10.13,5.9,1.25,1.25,0,0,0,1.81.08.86.86,0,0,0,.13-.14c2.22-2.2,4.49-4.35,6.92-6.35a1.62,1.62,0,0,0,.68-1.55c-.24-3,1.36-5.24,4.39-6.52a7.54,7.54,0,0,1,7.9,1.48c2,1.94,2.78,4.2,1.76,6.82s-4.59,4.64-7.64,4.22a2.14,2.14,0,0,0-1.73.68c-2.61,2-4.8,4.58-7.39,6.68-.34.28-.41.41-.05.73a22.35,22.35,0,0,1,4.11,5.19c1,1.6,2.4,3,3.07,4.84.23.6.58.57,1.12.35,2.15-.84,4.32-1.64,6.49-2.45a1.3,1.3,0,0,0,1-1.07,5,5,0,0,1,5.46-3.88,4.42,4.42,0,0,1,4.1,3,4.23,4.23,0,0,1-1.47,4.79,4.79,4.79,0,0,1-5.33.48,3,3,0,0,0-2.8-.13c-1.94.74-3.89,1.51-5.83,2.2-.75.26-1,.52-.75,1.38,1.14,3.48,2.4,6.93,2.73,10.59.09.85.49,1,1.22.93A34.7,34.7,0,0,1,666.07,171.79Z"/><path class="cls-19" d="M621.74,191.74c5.83,0,9.8,4.3,9.71,8.86s-3.83,8.72-9.77,8.7c-5.11,0-9.71-3.57-9.66-8.92C612.09,195.44,616.61,191.78,621.74,191.74Z"/><path class="cls-19" d="M583.11,170.87c-4.86,0-9.2-3.65-9.22-8.34s4.42-8.48,9.28-8.41c5.15.07,9.12,3.59,9.11,8.4S588.31,170.79,583.11,170.87Z"/><path class="cls-19" d="M631.7,170.87c1.29-4.31,5.42-6.37,9.94-5.15a6.93,6.93,0,0,1,5.48,6,6.62,6.62,0,0,1-3.64,7.19c-4.52,2.44-10.54.62-11.78-4.44-.28-.22-.28-.62-.56-.84V171.7C631.42,171.48,631.41,171.07,631.7,170.87Z"/><path class="cls-19" d="M625,147.62c-.06,3.37-2.88,6.56-7.34,6.5a6.83,6.83,0,0,1-7-6.69c0-3.69,3.29-6.54,7.33-6.5A6.86,6.86,0,0,1,625,147.62Z"/><path class="cls-19" d="M593.21,196.42c-1,3.64-4.34,5.29-7.77,4.9a6.58,6.58,0,0,1,0-13.11c3.48-.39,6.8,1.26,7.77,4.9.29.22.28.62.56.83v1.68C593.49,195.8,593.5,196.2,593.21,196.42Z"/><path class="cls-19" d="M610.54,179.93a5,5,0,0,1-5.07-4.86c0-2.72,2.31-4.78,5.31-4.76a5.2,5.2,0,0,1,5.31,4.85C616.08,177.73,613.54,180,610.54,179.93Z"/><path class="cls-20" d="M631.26,170.87c0,.4,0,.79-.56.83C630.66,171.29,630.66,170.87,631.26,170.87Z"/><path class="cls-20" d="M630.71,173.62c.58,0,.57.43.56.84C630.66,174.4,630.66,174,630.71,173.62Z"/><path class="cls-21" d="M593.72,193.94c-.59,0-.59-.43-.57-.83C593.73,193.15,593.73,193.54,593.72,193.94Z"/><path class="cls-21" d="M593.15,196.42c0-.4,0-.8.57-.83C593.73,196,593.73,196.38,593.15,196.42Z"/><path class="cls-18" d="M591.38,354.17c.74-.07,1.48-.11,2.21-.21a4.67,4.67,0,0,1,3.64.74c2.17,1.56,6,.73,7.59-1.38a4.39,4.39,0,0,0-.59-6l-.06-.06c-.2-.15-.41-.29-.62-.42a6.23,6.23,0,0,0-7.67,1.27,1.87,1.87,0,0,1-1.54.77q-3.65.28-7.29.64c-.61.06-.84-.07-1-.63a32.51,32.51,0,0,0-2.68-7.41c-.32-.72-.14-1,.56-1.25,1.12-.45,2.22-1,3.3-1.49a3.7,3.7,0,0,1,3.35-.41,3.69,3.69,0,0,0,4.45-1.82,3.07,3.07,0,0,0-1.38-4h0a4.17,4.17,0,0,0-4.86.87c-.49.58-1.09,1.12-1,1.95.06.35-.18.54-.51.69-1.66.75-3.34,1.49-5,2.29-.49.24-.63,0-.85-.27a43.59,43.59,0,0,0-5.48-6.26c-.4-.39-.45-.6,0-1,1.73-1.72,3.42-3.48,5.1-5.24a1.42,1.42,0,0,1,1.17-.41c3.59-.08,6.8-3.6,5.13-6.58a5.62,5.62,0,0,0-7.66-2.25c-2.46,1.13-3.35,2.84-2.88,5.32a.88.88,0,0,1-.34.89c-1.67,1.73-3.35,3.44-5,5.18-.43.45-.77.36-1.23.07a32.41,32.41,0,0,0-8.42-3.75c-.57-.17-.65-.42-.43-.88a33.8,33.8,0,0,0,1.92-4.6c.13-.45.5-.49.9-.64a3.6,3.6,0,0,0,2.59-2.42c.35-1.56-.4-2.77-2.13-3.48a4.34,4.34,0,0,0-4.55,1,2.92,2.92,0,0,0,0,4h0a1,1,0,0,1,.25,1.33c-.52,1.36-1,2.74-1.47,4.12-.17.54-.46.68-1,.56a40.57,40.57,0,0,0-9.19-.94c-.64,0-.78-.26-.82-.78-.14-2.13-.3-4.27-.54-6.39-.12-1,.74-1.36,1.23-1.92a3.85,3.85,0,0,0-.19-5.28l-.06-.06-.25-.21c-3-2.21-5.38-2.15-8.35.22a4.25,4.25,0,0,0-.18,5.84,3.64,3.64,0,0,0,.91.75,1.84,1.84,0,0,1,1.23,1.77c.07,1.9.27,3.8.45,5.7.07.58,0,.86-.89,1a31.7,31.7,0,0,0-9.34,2.59c-.7.3-.85.09-1.12-.36a24.62,24.62,0,0,0-2.54-4.13.43.43,0,0,1,0-.6v0c1.74-2.08.8-4.46-1.91-5a4.17,4.17,0,0,0-4.31,1.86,3,3,0,0,0,1,3.86,2.6,2.6,0,0,0,1.63.54,1.43,1.43,0,0,1,1.46,1c.68,1.28,1.4,2.55,2.14,3.81.23.39.25.61-.24.87a49.62,49.62,0,0,0-7.55,5,.68.68,0,0,1-1,.05c-1.81-1.34-3.63-2.65-5.46-4a1,1,0,0,1-.53-1c.14-2.07-1-3.58-3.24-4.47a6.05,6.05,0,0,0-5.9.93c-2.14,1.81-2.61,4.18-1,6.09a5.61,5.61,0,0,0,5.31,2,2,2,0,0,1,1.66.43c1.72,1.28,3.47,2.53,5.21,3.77.47.32.64.54.22,1.1a31.67,31.67,0,0,0-4.55,7.37c-.15.47-.39.55-1.09.29a30.84,30.84,0,0,0-5.18-1.27c-.63-.11-.59-.54-.71-.92a3.76,3.76,0,0,0-5.15-1.77,4,4,0,0,0-1.93,2.37,3,3,0,0,0,2.47,3.43,4,4,0,0,0,3.37-.57,1.24,1.24,0,0,1,1.18-.25c1.79.5,3.59,1,5.39,1.41.43.11.69.2.48.63-1.13,2.19-1.23,4.53-1.41,6.85-.16,2-.07,2-2.23,2.17-1.84.16-3.69.3-5.53.5a1.84,1.84,0,0,1-1.63-.51,6.19,6.19,0,0,0-8,.34,4.39,4.39,0,0,0-.3,6l.06.07a4.17,4.17,0,0,0,.88.75,6.22,6.22,0,0,0,7.66-.87,2.32,2.32,0,0,1,1.77-.84c2.17-.15,4.37-.31,6.53-.59,1-.13,1.27.18,1.4,1a25.46,25.46,0,0,0,1.92,6c0,.07.05.13.06.19,0,.59,1.14.9.69,1.48s-1.15.56-1.74.84c-1.21.54-2.42,1.05-3.58,1.64a1.49,1.49,0,0,1-1.42,0c-2.27-1-5,.34-5.29,2.47a3.19,3.19,0,0,0,2.71,3.57h.2c2.25.22,4.05-1,4.26-3,.05-.55.26-.78.83-1,1.59-.64,3.14-1.38,4.69-2.12.5-.24.82-.3,1.11.23,1.43,2.5,3.65,4.44,5.75,6.47.41.41.6.65.1,1.14-1.63,1.62-3.23,3.27-4.79,4.93-.38.39-.77.29-1.21.29a5.89,5.89,0,0,0-5.07,2.67,3.76,3.76,0,0,0,.3,4.81,6,6,0,0,0,7.61,1.1c1.91-1.15,2.87-2.73,2.46-4.8a.93.93,0,0,1,.3-.9c1.68-1.72,3.36-3.43,5-5.17.27-.3.48-.27.81-.09A47.84,47.84,0,0,0,533.4,387c.41.13.45.33.31.69-.58,1.56-1.15,3.13-1.69,4.7-.15.44-.49.53-.89.65a3.22,3.22,0,0,0-2.66,2.78,3,3,0,0,0,1.92,3.12,4.32,4.32,0,0,0,4.25-.59c1.8-1.46,1.84-3.09.06-4.66a.44.44,0,0,1-.12-.59h0a24,24,0,0,0,1.81-4.52c.19-.48.34-.68,1-.54a42.39,42.39,0,0,0,9.72.93c.75,0,1,.19,1,.81.12,2,.27,3.94.5,5.9a1.51,1.51,0,0,1-.79,1.61c-2.41,1.56-1.82,5.79.53,6.88,3.39,1.57,5.94,1.16,8.32-1.64,1.08-1.28.76-4.22-.65-5.15a3.33,3.33,0,0,1-1.79-3,41.55,41.55,0,0,0-.4-5.1c-.06-.6.07-.91.78-1a37.28,37.28,0,0,0,8.75-2.47c.65-.27,1-.14,1.24.43a27.44,27.44,0,0,0,1.56,2.75c.56.9,1,1.72.26,2.89s-.11,2.6,1,3.43a4.41,4.41,0,0,0,4.18.32c2.13-1,2.79-3.1,1.48-4.72a3.88,3.88,0,0,0-2.63-1.25c-.39-.06-.71-.1-.89-.45a34.34,34.34,0,0,0-2.61-4.21c-.36-.48-.19-.72.35-1a31.25,31.25,0,0,0,7.35-4.91.93.93,0,0,1,1.34-.21h0l.11.11c1.82,1.43,3.67,2.82,5.64,4.09a1.15,1.15,0,0,1,.6,1.06c0,2.15,1.34,3.67,3.73,4.37a6,6,0,0,0,5.95-1.58,4.14,4.14,0,0,0,1-5c-.89-1.8-3.75-3-6-2.52a1.63,1.63,0,0,1-1.4-.26c-2.11-1.31-3.89-3-6-4.29-.27-.18-.34-.27-.08-.52a16.38,16.38,0,0,0,2.81-4,18.43,18.43,0,0,0,2-3.66c.15-.45.41-.45.84-.34,1.68.47,3.38.9,5.07,1.33a.93.93,0,0,1,.79.69,3.79,3.79,0,0,0,4.4,2.41,3.35,3.35,0,0,0,2.87-2.45,2.92,2.92,0,0,0-1.41-3.33,3.83,3.83,0,0,0-4.07,0,2.39,2.39,0,0,1-2.12.28c-1.52-.4-3-.82-4.56-1.18-.59-.14-.81-.31-.65-.94a32.91,32.91,0,0,0,1.45-7.77c0-.61.32-.71.86-.74A35.22,35.22,0,0,1,591.38,354.17Z"/><path class="cls-19" d="M556.58,342.15c4.51-.42,7.32-3.8,7-7.11S560,329,555.5,329.37c-4,.36-7.28,3.26-6.92,7.15C548.91,340.11,552.64,342.47,556.58,342.15Z"/><path class="cls-19" d="M528,360c-3.71.32-6.88,3.28-6.61,6.7s3.89,5.87,7.67,5.49c4-.41,6.8-3.24,6.52-6.74S532,359.67,528,360Z"/><path class="cls-19" d="M565.18,356.7c1.25,3,4.56,4.26,8,3.07a5.27,5.27,0,0,0,3.89-4.73,4.75,4.75,0,0,0-3.26-5c-3.62-1.47-8.2.27-8.82,4-.21.18-.18.47-.38.65l.12,1.39C565,356.27,565,356.56,565.18,356.7Z"/><path class="cls-19" d="M561.76,374.06c-.25-2.45-2.66-4.58-6.06-4.24-3,.31-5.24,2.68-5,5.35s2.87,4.54,6.06,4.23S562,376.72,561.76,374.06Z"/><path class="cls-19" d="M534.22,340.69c-1-2.58-3.68-3.56-6.34-3s-4.6,2.82-4.41,5.19a5.1,5.1,0,0,0,5.21,4.35c2.79,0,5.17-1.38,5.75-4.1.2-.18.18-.47.4-.64l-.12-1.2C534.47,341.12,534.45,340.87,534.22,340.69Z"/><path class="cls-19" d="M548.66,351.51a3.76,3.76,0,0,0-3.62,3.88c.17,2,2.07,3.32,4.38,3.1a4,4,0,0,0,3.83-3.89C553.11,352.71,551,351.29,548.66,351.51Z"/><path class="cls-20" d="M565.18,356.7c0-.29,0-.58-.48-.57C564.75,356.43,564.77,356.71,565.18,356.7Z"/><path class="cls-20" d="M564.62,354.74c.43-.07.41-.35.37-.65C564.55,354.16,564.55,354.45,564.62,354.74Z"/><path class="cls-21" d="M534.85,342.46c-.45.06-.42.35-.39.64C534.85,343,534.85,342.75,534.85,342.46Z"/><path class="cls-21" d="M534.22,340.69c0,.3,0,.58.48.57C534.69,341,534.66,340.68,534.22,340.69Z"/><path class="cls-18" d="M99.84,467.54c.73-.06,1.45-.09,2.14-.21a3.7,3.7,0,0,1,3.53,1.05c2.08,2,5.83,1.07,7.49-1.6a7.08,7.08,0,0,0-.28-7.55,3.66,3.66,0,0,0-.81-.81c-2.44-1.86-5.62-1.25-7.49,1.44a1.79,1.79,0,0,1-1.52,1c-2.38.17-4.76.38-7.14.65-.59.08-.81-.11-.89-.82a50.09,50.09,0,0,0-2.43-9.57c-.28-.93-.1-1.25.58-1.59,1.07-.56,2.14-1.18,3.21-1.85a3,3,0,0,1,3.29-.44c1.71.75,3.61-.22,4.39-2.25a4.68,4.68,0,0,0-1.07-5l-.2-.13a3.37,3.37,0,0,0-4.74,1,3.64,3.64,0,0,0-1,2.48.89.89,0,0,1-.53.87c-1.64.92-3.28,1.84-4.9,2.83-.49.29-.62,0-.82-.37a56.23,56.23,0,0,0-5.19-8.21.85.85,0,0,1,0-1.32c1.72-2.17,3.42-4.38,5.09-6.61a1.24,1.24,0,0,1,1.14-.51c3.52,0,6.65-4.46,5.18-8.32-1.23-3.32-4.4-4.78-7.09-3.26l-.31.19c-2.24,1-3.5,3.92-2.92,6.77a1.32,1.32,0,0,1-.36,1.12c-1.68,2.18-3.36,4.35-5,6.53a.66.66,0,0,1-1,.17A1.09,1.09,0,0,1,80,433h0a28.63,28.63,0,0,0-8.14-5c-.55-.23-.63-.56-.39-1.15A51.85,51.85,0,0,0,73.35,421c.14-.58.53-.62,1-.8a4.1,4.1,0,0,0,2.59-3.05,4,4,0,0,0-2-4.53,3.5,3.5,0,0,0-4.45,1.16,4.7,4.7,0,0,0-.18,4.94.71.71,0,0,0,.12.18,1.69,1.69,0,0,1,.2,1.71c-.55,1.74-1.07,3.48-1.53,5.29-.19.7-.47.86-1,.69a31.09,31.09,0,0,0-9-1.32c-.63,0-.75-.35-.78-1-.09-2.73-.18-5.47-.37-8.21-.09-1.25.77-1.73,1.25-2.43a6.27,6.27,0,0,0,.09-6.61,3.34,3.34,0,0,0-.44-.54c-2.85-2.92-5.2-2.9-8.16.09a6.79,6.79,0,0,0-.49,7.23A4.22,4.22,0,0,0,51.25,415a2.41,2.41,0,0,1,1.17,2.3c0,2.43.17,4.89.31,7.32,0,.7,0,1.07-.74,1.19a34.51,34.51,0,0,0-9.4,3.16c-.63.32-.78,0-1.07-.52a35.83,35.83,0,0,0-2.36-5.36.72.72,0,0,1,0-.8c1.74-2.64.88-5.71-1.81-6.49a3.72,3.72,0,0,0-4.28,2.3,4.6,4.6,0,0,0,.91,5h0a2.26,2.26,0,0,0,1.56.73A1.44,1.44,0,0,1,37,425.08q1,2.48,2,4.92c.21.53.23.81-.26,1.12a50.8,50.8,0,0,0-7.49,6.28.58.58,0,0,1-.92.1.39.39,0,0,1-.08-.1c-1.73-1.74-3.49-3.49-5.23-5.21a1.43,1.43,0,0,1-.49-1.32c.21-2.58-1.06-5-3.05-5.81a4.79,4.79,0,0,0-5.79,1.05,6.38,6.38,0,0,0-1.15,7.8,5,5,0,0,0,5.13,2.65,1.67,1.67,0,0,1,1.62.61c1.64,1.67,3.31,3.31,5,4.94.45.45.61.71.19,1.32a43.7,43.7,0,0,0-4.62,9.37c-.14.49-.33.64-.79.47-1.77-.68-3.55-1.33-5.35-1.89-.58-.18-.54-.7-.63-1.18-.45-1.93-1.95-3.18-3.56-3a3.89,3.89,0,0,0-3.4,3.58,4,4,0,0,0,2.31,4.47h0a3.16,3.16,0,0,0,3.3-.68,1,1,0,0,1,1.16-.28q2.6,1,5.23,1.95c.41.13.66.25.44.8A28.28,28.28,0,0,0,19,465.83c-.21,2.53-.12,2.53-2.23,2.73-1.81.17-3.62.31-5.42.52a1.56,1.56,0,0,1-1.57-.7,5,5,0,0,0-7.8.27,7,7,0,0,0-.4,7.67,4.25,4.25,0,0,0,1.07,1.32,5,5,0,0,0,7.49-.93,2.15,2.15,0,0,1,1.75-1c2.14-.13,4.28-.28,6.42-.59.95-.14,1.23.26,1.34,1.32a41.16,41.16,0,0,0,1.71,7.78,1.13,1.13,0,0,1,0,.26c0,.76,1.07,1.19.64,1.9s-1.13.7-1.72,1c-1.18.68-2.39,1.33-3.54,2a1.13,1.13,0,0,1-1.37,0c-1.82-1.12-4-.2-4.94,2.05a6.42,6.42,0,0,0-.29,1c-.29,2.09.77,4.11,2.43,4.63h.37c1.9.49,3.77-1,4.17-3.36,0-.12,0-.23,0-.34a1.48,1.48,0,0,1,.85-1.33c1.56-.79,3.09-1.7,4.62-2.64.51-.3.81-.36,1.07.32,1.33,3.25,3.44,5.79,5.42,8.44.38.52.55.84.06,1.47-1.62,2-3.21,4.1-4.8,6.21-.38.51-.76.35-1.18.35a5.5,5.5,0,0,0-5,3.3,6,6,0,0,0,.17,6.19c1.76,2.82,5,3.51,7.4,1.6a6.22,6.22,0,0,0,2.51-6.11,1.46,1.46,0,0,1,.32-1.16c1.68-2.16,3.36-4.32,5-6.52.29-.38.47-.33.8-.09a41.27,41.27,0,0,0,8,4.81c.4.19.43.45.29.91q-.94,3-1.77,6c-.15.54-.48.66-.87.81a3.81,3.81,0,0,0-2.67,3.51,4.25,4.25,0,0,0,1.76,4.1,3.42,3.42,0,0,0,4.17-.66,4,4,0,0,0,.17-6,.69.69,0,0,1-.13-.74v-.08a35.43,35.43,0,0,0,1.9-5.74c.2-.62.35-.87,1-.67A31.56,31.56,0,0,0,55.65,511c.72,0,.9.25,1,1,.08,2.54.17,5.07.35,7.59a2.2,2.2,0,0,1-.82,2.07c-2.38,1.93-1.89,7.38.36,8.83,3.27,2.1,5.76,1.64,8.15-1.91a6.43,6.43,0,0,0-.51-6.61,4.57,4.57,0,0,1-1.68-3.88c0-2.21-.08-4.42-.27-6.61,0-.78.1-1.18.79-1.33a31,31,0,0,0,8.56-3c.63-.34,1-.16,1.2.57.43,1.23,1,2.4,1.45,3.57s.95,2.22.19,3.71a4,4,0,0,0,.85,4.42,3.43,3.43,0,0,0,4.07.51,4.38,4.38,0,0,0,1.56-6,3.58,3.58,0,0,0-2.53-1.68c-.47,0-.83-.2-1-1A10.12,10.12,0,0,0,75.5,507c-.91-1.2-.82-1.57-.11-2.06a30.87,30.87,0,0,0,7.27-6.13.78.78,0,0,1,1.18-.37.81.81,0,0,1,.16.16l.1.14c1.74,1.85,3.52,3.69,5.35,5.37a1.66,1.66,0,0,1,.56,1.32c-.06,2.69,1.41,5.07,3.54,5.69a5,5,0,0,0,5.84-1.89,6.45,6.45,0,0,0,1-6.4c-1.19-2.53-3.53-3.88-5.86-3.39a1.31,1.31,0,0,1-1.35-.35c-2-1.74-3.8-3.89-5.75-5.65-.27-.22-.34-.36-.08-.67a22.39,22.39,0,0,0,2.84-5,26.44,26.44,0,0,0,2.08-4.66c.15-.58.41-.58.83-.41,1.63.63,3.21,1.22,4.91,1.8a1.1,1.1,0,0,1,.76.93c.51,2.3,2.39,3.7,4.28,3.2a3.69,3.69,0,0,0,2.91-3.1,4.33,4.33,0,0,0-1.28-4.31,3,3,0,0,0-4,0,1.87,1.87,0,0,1-2.08.31c-1.47-.56-2.93-1.11-4.41-1.63-.57-.18-.79-.41-.61-1.21a56.09,56.09,0,0,0,1.6-9.95c0-.78.32-.89.86-.92C97.32,467.78,98.59,467.64,99.84,467.54Z"/><path class="cls-19" d="M75.16,450.19a8.45,8.45,0,0,0,8-8.68c-.26-4.12-3.8-7.62-8.87-7.2A8.33,8.33,0,0,0,66.38,443C66.65,447.49,70.74,450.49,75.16,450.19Z"/><path class="cls-19" d="M42.79,471.67c-4.16.32-7.77,4-7.6,8.16s4.28,7.37,8.42,7a7.89,7.89,0,0,0,7.49-8.21C50.88,474.25,47.27,471.38,42.79,471.67Z"/><path class="cls-19" d="M84.41,468.39c1.31,3.79,5,5.38,8.83,4a6.38,6.38,0,0,0,4.45-5.78,6,6,0,0,0-3.49-6.25c-4-1.91-9.17.15-10,4.81-.24.21-.21.57-.44.79l.08,1.73C84.13,467.89,84.14,468.24,84.41,468.39Z"/><path class="cls-19" d="M80.07,489.89a5.89,5.89,0,0,0-6.64-5.4A6.3,6.3,0,0,0,67.68,491a5.94,5.94,0,0,0,6.66,5.39A6.23,6.23,0,0,0,80.07,489.89Z"/><path class="cls-19" d="M50.28,447.89a5.89,5.89,0,0,0-7-4,6.29,6.29,0,0,0-5.07,6.35,5.9,5.9,0,0,0,5.69,5.51,6.08,6.08,0,0,0,6.51-5c.24-.22.22-.58.46-.79l-.08-1.48C50.51,448.42,50.5,448.06,50.28,447.89Z"/><path class="cls-19" d="M66.05,461.62a4.51,4.51,0,0,0-4.15,4.73,4.28,4.28,0,0,0,4.81,4,4.37,4.37,0,1,0-.66-8.7Z"/><path class="cls-20" d="M84.41,468.39c0-.37,0-.73-.53-.71C83.88,468.06,83.89,468.39,84.41,468.39Z"/><path class="cls-20" d="M83.79,466c.48-.08.47-.43.43-.79C83.72,465.26,83.75,465.61,83.79,466Z"/><path class="cls-21" d="M50.85,450.08c-.51.07-.49.42-.46.79C50.89,450.79,50.88,450.44,50.85,450.08Z"/><path class="cls-21" d="M50.28,447.89c0,.35,0,.71.53.71C50.76,448.23,50.76,447.87,50.28,447.89Z"/></g></g></svg>